<?xml version="1.0" standalone="no"?><!DOCTYPE svg PUBLIC "-//W3C//DTD SVG 1.1//EN" "http://www.w3.org/Graphics/SVG/1.1/DTD/svg11.dtd"><svg width="100%" height="100%" viewBox="0 0 310 385" version="1.1" xmlns="http://www.w3.org/2000/svg" xmlns:xlink="http://www.w3.org/1999/xlink" xml:space="preserve" style="fill-rule:evenodd;clip-rule:evenodd;stroke-linejoin:round;stroke-miterlimit:1.41421;"><g><path d="M31.2711,278.994l4.37368,0l0,26.3655l37.689,0l0,-26.3655l4.37368,0l0,56.9623l-4.37368,0l0,-26.6883l-37.689,0l0,26.6883l-4.37368,0l0,-56.9623Z" style="fill:#8bbe21;fill-rule:nonzero;"/><path d="M88.9077,278.994l41.8981,0l0,3.9053l-37.5212,0l0,22.3779l33.733,0l0,3.9053l-33.733,0l0,22.8685l37.9421,0l0,3.9053l-42.319,0l0,-56.9623Z" style="fill:#8bbe21;fill-rule:nonzero;"/><path d="M163.205,308.533c9.84236,0 17.1624,-4.80409 17.1624,-13.0198l0,-0.161402c0,-7.64919 -6.22822,-12.4533 -16.9124,-12.4533l-20.1056,0l0,25.6344l19.8556,0ZM138.975,278.994l24.7325,0c7.23461,0 13.0419,2.19633 16.5738,5.61743c2.77548,2.68371 4.45913,6.50672 4.45913,10.5766l0,0.164567c0,9.51956 -7.32006,14.9693 -17.2479,16.2731l19.4379,24.3306l-5.55413,0l-18.7638,-23.5964l-19.2638,0l0,23.5964l-4.37368,0l0,-56.9623Z" style="fill:#8bbe21;fill-rule:nonzero;"/><path d="M208.98,282.899l-20.5297,0l0,-3.9053l45.4331,0l0,3.9053l-20.5265,0l0,53.057l-4.37684,0l0,-53.057Z" style="fill:#8bbe21;fill-rule:nonzero;"/><path d="M235.827,327.657l2.85777,-3.17424c6.4814,5.77566 12.4533,8.46253 21.1184,8.46253c8.83281,0 14.8901,-4.79776 14.8901,-11.3108l0,-0.164567c0,-6.01935 -3.28184,-9.51956 -16.6561,-12.121c-14.1338,-2.76915 -19.8556,-7.40551 -19.8556,-16.0326l0,-0.161402c0,-8.46253 7.99415,-14.9756 18.9283,-14.9756c8.58279,0 14.2192,2.28178 20.1911,6.91814l-2.77548,3.33881c-5.55097,-4.63952 -11.1051,-6.43077 -17.5833,-6.43077c-8.66191,0 -14.3838,4.80092 -14.3838,10.7411l0,0.164567c0,6.01935 3.19639,9.68096 17.1593,12.4469c13.6306,2.68687 19.3493,7.40551 19.3493,15.7066l0,0.161402c0,9.19675 -8.15872,15.5452 -19.5138,15.5452c-9.42462,0 -16.6592,-3.01284 -23.7261,-9.11447" style="fill:#8bbe21;fill-rule:nonzero;"/><path d="M31.2704,346.973l2.8641,0l0,17.2669l24.6819,0l0,-17.2669l2.8641,0l0,37.3029l-2.8641,0l0,-17.4789l-24.6819,0l0,17.4789l-2.8641,0l0,-37.3029Z" style="fill:#878786;fill-rule:nonzero;"/><path d="M69.0154,346.973l27.4384,0l0,2.55712l-24.5743,0l0,14.6559l22.0931,0l0,2.55712l-22.0931,0l0,14.9756l24.8496,0l0,2.55712l-27.7137,0l0,-37.3029Z" style="fill:#878786;fill-rule:nonzero;"/><path d="M117.671,366.318c6.44342,0 11.238,-3.14576 11.238,-8.52583l0,-0.107601c0,-5.00979 -4.07619,-8.15239 -11.0734,-8.15239l-13.1685,0l0,16.7858l13.0039,0ZM101.803,346.972l16.1972,0c4.73763,0 8.54165,1.43996 10.8551,3.6806c1.81656,1.75643 2.92106,4.25975 2.92106,6.92447l0,0.107601c0,6.23772 -4.79459,9.80438 -11.2981,10.6589l12.7286,15.9345l-3.63629,0l-12.2855,-15.4566l-12.6178,0l0,15.4566l-2.8641,0l0,-37.306Z" style="fill:#878786;fill-rule:nonzero;"/><rect x="137.896" y="346.974" width="2.8641" height="37.3029" style="fill:#878786;fill-rule:nonzero;"/><path d="M159.165,349.531l-13.4438,0l0,-2.55712l29.7518,0l0,2.55712l-13.4438,0l0,34.7458l-2.8641,0l0,-34.7458Z" style="fill:#878786;fill-rule:nonzero;"/><path d="M201.206,371.327l-10.1367,-21.5804l-10.1936,21.5804l20.3303,0ZM189.747,346.709l2.75649,0l17.9599,37.5687l-3.13943,0l-4.90536,-10.4468l-22.7545,0l-4.90219,10.4468l-2.97486,0l17.9599,-37.5687Z" style="fill:#878786;fill-rule:nonzero;"/><path d="M210.581,365.732l0,-0.107601c0,-10.0702 7.54792,-19.2891 19.0644,-19.2891c6.27886,0 10.2443,1.81024 14.1021,4.90219l-1.87353,2.07924c-3.02866,-2.56028 -6.55735,-4.47812 -12.3963,-4.47812c-9.36765,0 -15.9218,7.67135 -15.9218,16.6814l0,0.104437c0,9.64615 6.22506,16.8396 16.5295,16.8396c4.90219,0 9.47525,-1.97164 12.2855,-4.26291l0,-10.7127l-12.8932,0l0,-2.55712l15.6465,0l0,14.3869c-3.47173,2.98752 -8.87078,5.59844 -15.1496,5.59844c-12.1779,0 -19.3936,-8.68723 -19.3936,-19.1847" style="fill:#878786;fill-rule:nonzero;"/><path d="M251.357,346.973l27.4352,0l0,2.55712l-24.5711,0l0,14.6559l22.0931,0l0,2.55712l-22.0931,0l0,14.9756l24.8464,0l0,2.55712l-27.7105,0l0,-37.3029Z" style="fill:#878786;fill-rule:nonzero;"/><path d="M116.048,17.5638l0,87.7648l-38.8283,19.8936l0,-87.7584l-49.7783,25.5079l0,184.058l-26.6535,12.3299l0,28.5618l19.229,0l0,-9.00054l-9.9468,0l0,-11.2728l67.0547,-31.6158l0,-46.7971l-2.28495,0l0,-5.41488l-3.76288,0l0,-5.41488l-3.43691,0l0,-5.41805l13.3078,-5.41488l3.92112,0l0.667762,-16.789c-0.462053,-0.0727892 -0.829164,-0.550666 -0.829164,-1.15513l0,-0.037977c0,-0.645608 0.414582,-1.16779 0.924106,-1.18045l0.123425,-3.08246l-0.104437,0c-0.519018,0 -0.943094,-0.528513 -0.943094,-1.18362l0,-0.037977c0,-0.655103 0.424076,-1.18362 0.943094,-1.18362l0.199379,0l0.00316475,-0.0316475l8.76002,0l0,0.0316475l0.202544,0c0.519018,0 0.93993,0.528513 0.93993,1.18362l0,0.037977c0,0.655103 -0.420911,1.18362 -0.93993,1.18362l-0.107601,0l0.123425,3.08246c0.512689,0.012659 0.924106,0.534842 0.924106,1.18045l0,0.037977c0,0.604467 -0.363946,1.08234 -0.829164,1.15513l0.670926,16.789l2.45901,0l0.670926,-16.789c-0.465218,-0.0727892 -0.829164,-0.550666 -0.829164,-1.15513l0,-0.037977c0,-0.645608 0.411417,-1.16779 0.920941,-1.18045l0.123425,-3.08246l-0.104437,0c-0.519018,0 -0.93993,-0.528513 -0.93993,-1.18362l0,-0.037977c0,-0.655103 0.420911,-1.18362 0.93993,-1.18362l0.202544,0l0,-0.0316475l8.76002,0l0,0.0316475l0.202544,0c0.519018,0 0.93993,0.528513 0.93993,1.18362l0,0.037977c0,0.655103 -0.420911,1.18362 -0.93993,1.18362l-0.104437,0l0.123425,3.08246c0.509524,0.012659 0.920941,0.534842 0.920941,1.18045l0,0.037977c0,0.604467 -0.363946,1.08234 -0.829164,1.15513l0.670926,16.789l3.65528,0l13.3078,5.41488l0,5.41805l-3.43691,0l0,5.41488l-3.75972,0l0,5.41488l-2.28811,0l0,28.8055l33.2741,-15.2952l0,-202.433l-33.4893,17.251Z" style="fill:#8bbe21;fill-rule:nonzero;"/><path d="M309.552,278.859l-0.196214,-19.5581l-27.8498,-12.5482l0,-2.21216l0,-152.24l0,-29.3277l-48.7687,-24.9192l0,87.1666l-40.1448,-17.903l0,-89.7744l-33.1855,-17.2289l0,202.433l33.2773,15.2952l0,-28.8087l-2.28811,0l0,-5.41488l-3.75972,0l0,-5.41488l-3.43691,0l0,-5.41488l13.3078,-5.41488l3.65528,0l0.670926,-16.789c-0.465218,-0.0727892 -0.829164,-0.550666 -0.829164,-1.15513l0,-0.037977c0,-0.645608 0.411417,-1.16779 0.920941,-1.18045l0.123425,-3.08246l-0.104437,0c-0.519018,0 -0.93993,-0.531677 -0.93993,-1.18362l0,-0.0411417c0,-0.651938 0.420911,-1.18362 0.93993,-1.18362l0.202544,0l0,-0.0284827l8.76002,0l0,0.0284827l0.202544,0c0.519018,0 0.93993,0.531677 0.93993,1.18362l0,0.0411417c0,0.651938 -0.420911,1.18362 -0.93993,1.18362l-0.107601,0l0.123425,3.08246c0.512689,0.012659 0.924106,0.534842 0.924106,1.18045l0,0.037977c0,0.604467 -0.363946,1.08234 -0.829164,1.15513l0.670926,16.789l2.45901,0l0.670926,-16.789c-0.465218,-0.0727892 -0.829164,-0.550666 -0.829164,-1.15513l0,-0.037977c0,-0.645608 0.411417,-1.16779 0.924106,-1.18045l0.12026,-3.08246l-0.104437,0c-0.519018,0 -0.93993,-0.531677 -0.93993,-1.18362l0,-0.0411417c0,-0.651938 0.420911,-1.18362 0.93993,-1.18362l0.202544,0l0,-0.0284827l8.76002,0l0,0.0284827l0.202544,0c0.519018,0 0.93993,0.531677 0.93993,1.18362l0,0.0411417c0,0.651938 -0.420911,1.18362 -0.93993,1.18362l-0.104437,0l0.123425,3.08246c0.509524,0.012659 0.920941,0.534842 0.920941,1.18045l0,0.037977c0,0.604467 -0.363946,1.08234 -0.825999,1.15513l0.667762,16.789l3.92112,0l13.3078,5.41488l0,5.41488l-3.43691,0l0,5.41488l-3.76288,0l0,5.41488l-2.28495,0l0,46.8003l1.07918,0.503195l-0.110766,0.199379l24.5869,11.295l24.128,11.3298l0,-0.24685l18.6499,8.56697l0.113931,11.2412l-9.9468,0l0,9.00054l19.229,0l0,-9.00054l-6.19657,0l6.19657,-0.0632949Z" style="fill:#878786;fill-rule:nonzero;"/></g></svg>